# xmcd
#
# Track frame offsets: 
#        150
#        15975
#        38175
#        51289
#        67789
#        85262
#        102412
#        120622
#        138847
#        160331
#        177400
#        194125
#
# Disc length: 2867 seconds
#
# Revision: 0
# Processed by: cddbd v1.5.2PL0 Copyright (c) Steve Scherf et al.
# Submitted via: ExactAudioCopyFreeDBPlugin 1.0
#
DISCID=9f0b310c
DTITLE=Various Artist - All Areas Volume 133
DYEAR=2011
DGENRE=Visions Sampler
TTITLE0=The Sound Of Winter - The Sound Of Winter
TTITLE1=The Devil's Blood - She
TTITLE2=Jim Ward - Take It Back
TTITLE3=Against Me! - I Was A Teenage Anarchist (Acoustic)
TTITLE4=Wild Flag - Romance
TTITLE5=We Were Promised Jetpacks - Medicine 
TTITLE6=Dananananaykroyd - Reboot
TTITLE7=Adolar - Ungelenk Und Einstudiert
TTITLE8=Collapse Under The Empire - Giants
TTITLE9=Sep7ember - I Hate NY
TTITLE10=Transfer - Take Your Medicine
TTITLE11=Remember Remember - Hey Zeus
EXTD=
EXTT0=
EXTT1=
EXTT2=
EXTT3=
EXTT4=
EXTT5=
EXTT6=
EXTT7=
EXTT8=
EXTT9=
EXTT10=
EXTT11=
PLAYORDER=
